<?xml version="1.0" encoding="UTF-8"?>
<svg version="1.1" xmlns="http://www.w3.org/2000/svg" width="696" height="619">
<path d="M0 0 C229.68 0 459.36 0 696 0 C696 204.27 696 408.54 696 619 C466.32 619 236.64 619 0 619 C0 414.73 0 210.46 0 0 Z " fill="#001E60" transform="translate(0,0)"/>
<path d="M0 0 C1.00740234 0.00081573 1.00740234 0.00081573 2.03515625 0.00164795 C12.7248684 0.0412653 22.43892533 0.87402075 32.5625 4.375 C33.21057617 4.59462402 33.85865234 4.81424805 34.52636719 5.04052734 C51.36720758 10.85864653 73.22608485 23.69081712 82.5625 39.375 C82.93164349 42.66270065 82.93164349 42.66270065 82.92326355 46.65155029 C82.92582682 47.38592386 82.9283901 48.12029744 82.93103105 48.87692475 C82.93597368 51.33842038 82.91946856 53.79930304 82.90307617 56.26074219 C82.90223 58.02485642 82.90270485 59.78897171 82.90440369 61.55308533 C82.90526546 66.34411031 82.88761026 71.13491059 82.86668181 75.92588329 C82.84794532 80.93204297 82.84616696 85.93820764 82.84260559 90.94439697 C82.83327623 100.42516796 82.80865036 109.90583534 82.77855712 119.38656068 C82.74504087 130.17966203 82.72853408 140.97276829 82.71347082 151.76590872 C82.6821016 173.96899701 82.62932375 196.17199198 82.5625 218.375 C77.97545802 216.93865752 74.83073129 215.29365241 71 212.375 C41.19994129 190.85371761 3.84167995 187.24109379 -31.4375 182.375 C-31.4375 122.975 -31.4375 63.575 -31.4375 2.375 C-20.7433037 1.03822546 -10.69014184 -0.01483244 0 0 Z " fill="#FDFDFE" transform="translate(340.4375,227.625)"/>
<path d="M0 0 C0 59.4 0 118.8 0 180 C-12.375 181.98 -12.375 181.98 -25 184 C-51.72156127 190.05295034 -78.81337051 199.45201328 -101.48779297 215.20751953 C-104.73534336 217.4204694 -105.91518309 218 -110 218 C-110 161.24 -110 104.48 -110 46 C-110.66 45.67 -111.32 45.34 -112 45 C-92.26283173 19.52111005 -66.45175377 5.89465843 -34.546875 1.52270508 C-33.50015625 1.3914624 -32.4534375 1.26021973 -31.375 1.125 C-30.42367187 1.00471436 -29.47234375 0.88442871 -28.4921875 0.76049805 C-18.89242979 -0.28060471 -9.81467636 0 0 0 Z " fill="#FEFEFE" transform="translate(548,228)"/>
<path d="M0 0 C3.67630879 1.00262967 4.75202785 2.56804435 6.75 5.75 C8.16594026 9.99782079 8.62752678 13.91375179 6.65234375 18.046875 C4.13404772 21.62523404 1.18298096 24.57033462 -1.9375 27.625 C-2.88133545 28.55916748 -2.88133545 28.55916748 -3.84423828 29.51220703 C-7.60318588 33.20913538 -11.43651068 36.77176862 -15.4609375 40.1796875 C-18.11140923 42.50608408 -20.55141978 45.02647049 -23 47.5625 C-24.94900425 49.45736524 -26.94158068 51.22702555 -29 53 C-33.28814328 56.72433185 -37.2746006 60.69695608 -41.25 64.75 C-45.80961743 69.39867246 -50.43177575 73.87347291 -55.36621094 78.12451172 C-58.61930672 80.93155056 -61.79532227 83.82379456 -64.92236328 86.77075195 C-67.01349474 88.7381498 -69.04392694 90.60989997 -71.421875 92.2265625 C-73.47150997 93.52443127 -73.47150997 93.52443127 -75.25 96.75 C-75.14235111 99.28881205 -74.91789119 101.61863711 -74.5390625 104.1171875 C-74.43944214 104.83258194 -74.33982178 105.54797638 -74.23718262 106.28504944 C-73.2818072 112.95855417 -72.05235528 119.57382784 -70.75 126.1875 C-67.24648054 144.32666623 -64.10533148 162.52936957 -60.94140625 180.73022461 C-57.54098247 200.26368472 -54.00296544 219.76911415 -50.23046875 239.234375 C-50.07885788 240.01890549 -49.92724701 240.80343597 -49.77104187 241.61174011 C-48.8736158 246.25534208 -48.8736158 246.25534208 -47.96606445 250.89697266 C-47.50656544 253.23749378 -47.05530172 255.57947962 -46.60546875 257.921875 C-46.46803757 258.61037537 -46.33060638 259.29887573 -46.18901062 260.00823975 C-45.34513825 264.45255886 -45.25 268.1053819 -45.25 272.75 C-26.77 272.75 -8.29 272.75 10.75 272.75 C16.75 291.75 16.75 291.75 17.75 297.75 C-29.44 297.75 -76.63 297.75 -125.25 297.75 C-123.56928993 289.34644967 -121.45816207 281.03060775 -119.25 272.75 C-102.09 272.75 -84.93 272.75 -67.25 272.75 C-68.24 267.8 -69.23 262.85 -70.25 257.75 C-70.7675003 254.87182544 -71.27475599 251.99852169 -71.7487793 249.11376953 C-71.87306431 248.37008967 -71.99734932 247.62640982 -72.12540054 246.86019421 C-72.52734453 244.4514494 -72.92584377 242.0421499 -73.32421875 239.6328125 C-73.61207438 237.90281488 -73.9001297 236.17285048 -74.18836975 234.44291687 C-74.95086756 229.86267142 -75.71027536 225.28191879 -76.46903992 220.70105362 C-77.09683932 216.91376234 -77.72671242 213.12681716 -78.35659218 209.33987141 C-81.22223568 192.10955556 -84.07672179 174.87748082 -86.87890625 157.63671875 C-87.06696335 156.48010742 -87.25502045 155.32349609 -87.44877625 154.13183594 C-88.28401784 148.98919953 -89.11540398 143.8459845 -89.94018555 138.70166016 C-90.22574203 136.93261611 -90.51130473 135.16357307 -90.796875 133.39453125 C-90.91708511 132.63589279 -91.03729523 131.87725433 -91.16114807 131.09562683 C-91.77169825 127.32527759 -92.44561657 123.56883784 -93.19848633 119.82421875 C-93.3445784 119.08816406 -93.49067047 118.35210937 -93.64118958 117.59375 C-94.15059166 115.49027856 -94.15059166 115.49027856 -96.52734375 113.91796875 C-97.40519531 113.59441406 -98.28304687 113.27085937 -99.1875 112.9375 C-103.06671679 111.44637248 -105.06421122 110.34730128 -107.25 106.75 C-108.63089183 102.60732452 -109.07441165 99.06935334 -108.25 94.75 C-104.76341968 88.66875525 -98.60269239 84.45644908 -93.20703125 80.16796875 C-90.10846261 77.63426467 -87.1749663 74.97908535 -84.25 72.25 C-80.58441285 68.83676675 -76.85283172 65.56396489 -72.9375 62.4375 C-68.33660321 58.73952091 -64.03504961 54.80278594 -59.75 50.75 C-54.64335222 45.92014919 -49.43165565 41.35526277 -43.9375 36.96484375 C-39.8209671 33.57229411 -35.93840188 29.93758554 -32.02734375 26.3125 C-29.14306447 23.65133655 -26.20662867 21.06300992 -23.2421875 18.4921875 C-20.88979365 16.43499601 -18.56965034 14.34403085 -16.25 12.25 C-15.40953125 11.49847656 -14.5690625 10.74695313 -13.703125 9.97265625 C-12.1288342 8.54626856 -10.57454733 7.09730194 -9.046875 5.62109375 C-4.09741929 0.9455583 -4.09741929 0.9455583 0 0 Z " fill="#FBFCFC" transform="translate(242.25,148.25)"/>
<path d="M0 0 C2.79318878 1.24611068 4.21543951 2.97530191 6.19140625 5.296875 C7.21621094 6.48410156 7.21621094 6.48410156 8.26171875 7.6953125 C10.06640625 9.921875 10.06640625 9.921875 12.06640625 12.921875 C13.91975507 13.80210969 13.91975507 13.80210969 16.1171875 14.3515625 C17.3865918 14.70927734 17.3865918 14.70927734 18.68164062 15.07421875 C19.57173828 15.31269531 20.46183594 15.55117187 21.37890625 15.796875 C22.19552734 16.02761719 23.01214844 16.25835937 23.85351562 16.49609375 C30.04672688 18.21057266 36.28902792 19.69584003 42.54296875 21.16796875 C54.5720413 24.00336567 66.5390514 27.07024295 78.50219727 30.1706543 C82.1818938 31.12309005 85.86337118 32.06843185 89.54492188 33.01367188 C91.89724634 33.62196705 94.24946407 34.23067515 96.6015625 34.83984375 C97.6962233 35.12006882 98.79088409 35.40029388 99.91871643 35.68901062 C100.93175339 35.95301163 101.94479034 36.21701263 102.98852539 36.48901367 C103.87560684 36.71819992 104.76268829 36.94738617 105.676651 37.18351746 C107.96815272 37.89151782 109.96080864 38.78256898 112.06640625 39.921875 C111.81408296 44.3660206 110.00153362 46.34910975 106.76391602 49.27148438 C106.18311279 49.77486328 105.60230957 50.27824219 105.00390625 50.796875 C104.40827881 51.32861328 103.81265137 51.86035156 103.19897461 52.40820312 C101.497152 53.92340108 99.78338526 55.42390384 98.06640625 56.921875 C97.35742188 57.55351562 96.6484375 58.18515625 95.91796875 58.8359375 C92.93107755 61.48370568 89.89279632 64.07062856 86.85546875 66.66015625 C85.65478584 67.68470592 84.45427004 68.70945146 83.25390625 69.734375 C82.64772461 70.25169189 82.04154297 70.76900879 81.41699219 71.30200195 C77.67569805 74.50689729 74.00525242 77.77396778 70.37890625 81.109375 C66.88380736 84.31832544 63.32356785 87.38253337 59.62890625 90.359375 C55.63416639 93.58130601 51.82086276 96.92842995 48.06640625 100.421875 C43.45636289 104.71142613 38.68857669 108.72598172 33.78125 112.67578125 C30.01278349 115.79357729 26.44451285 119.113159 22.84765625 122.42578125 C19.13332896 125.75928566 15.27368675 128.89249774 11.37890625 132.01171875 C9.08452694 133.79721233 9.08452694 133.79721233 7.50390625 135.73828125 C7.02953125 136.12886719 6.55515625 136.51945313 6.06640625 136.921875 C3.9765625 136.49584961 3.9765625 136.49584961 2.06640625 135.921875 C-0.19712086 126.80949952 -1.88068145 117.68120736 -3.32458496 108.40997314 C-3.95313783 104.38208412 -4.59960448 100.35707441 -5.24609375 96.33203125 C-5.38078064 95.49267029 -5.51546753 94.65330933 -5.65423584 93.78851318 C-7.1118761 84.74652498 -8.65206887 75.71917135 -10.22277832 66.69619751 C-10.52786387 64.94219802 -10.83151407 63.18794822 -11.13366699 61.43344116 C-11.55779592 58.97314592 -11.98708747 56.51380805 -12.41796875 54.0546875 C-12.54171875 53.33329086 -12.66546875 52.61189423 -12.79296875 51.86863708 C-13.57479813 47.45498223 -14.41630984 43.14476102 -15.93359375 38.921875 C-18.57381436 37.42918147 -20.60756213 36.50472521 -23.43359375 35.609375 C-30.77934981 33.07611894 -30.77934981 33.07611894 -32.93359375 30.921875 C-32.87260757 27.33588763 -32.02114944 26.01850837 -29.59765625 23.34375 C-28.59556464 22.44084552 -27.58179729 21.55078263 -26.55859375 20.671875 C-26.02274658 20.19661377 -25.48689941 19.72135254 -24.93481445 19.23168945 C-20.52488655 15.35056408 -15.99783718 11.6102289 -11.41015625 7.94140625 C-9.19036681 6.13126249 -7.09707336 4.24139868 -4.99609375 2.296875 C-1.93359375 -0.078125 -1.93359375 -0.078125 0 0 Z " fill="#FCFDFD" transform="translate(273.93359375,95.078125)"/>
<path d="M0 0 C5.61 0 11.22 0 17 0 C17 62.7 17 125.4 17 190 C1.16 190.33 -14.68 190.66 -31 191 C-53.19392792 192.5231127 -75.01624626 194.79889042 -97 198 C-98.44133859 198.20620264 -99.88273075 198.4120319 -101.32421875 198.6171875 C-102.20722656 198.74351562 -103.09023438 198.86984375 -104 199 C-76.49603079 175.89257605 -34.29648693 172 0 172 C0 115.24 0 58.48 0 0 Z " fill="#FCFCFC" transform="translate(562,256)"/>
<path d="M0 0 C33.97242882 -1.52115353 67.15625412 11.23167442 96 28 C92.90573208 28.96527989 90.71150559 28.98274017 87.53295898 28.41088867 C86.65361191 28.25710251 85.77426483 28.10331635 84.86827087 27.94487 C83.92045242 27.77099258 82.97263397 27.59711517 81.99609375 27.41796875 C81.00360123 27.24372879 80.0111087 27.06948883 78.98854065 26.88996887 C75.80342735 26.33024908 72.62034738 25.75995457 69.4375 25.1875 C50.40990243 21.77509435 31.66166791 18.95438868 12.3125 18.375 C10.65250977 18.31699219 10.65250977 18.31699219 8.95898438 18.2578125 C6.30618845 18.16594078 3.65311839 18.08203295 1 18 C0.67 12.06 0.34 6.12 0 0 Z " fill="#F9F9FA" transform="translate(314,428)"/>
<path d="M0 0 C0.33 0 0.66 0 1 0 C1 1.65 1 3.3 1 5 C1.66 5 2.32 5 3 5 C3 6.65 3 8.3 3 10 C2.34 10 1.68 10 1 10 C-0.1577506 6.52674819 -0.06866652 3.63932552 0 0 Z " fill="#051655" transform="translate(171,269)"/>
</svg>
